<?xml version="1.0" encoding="utf-8"?>
<!-- Generator: Adobe Illustrator 18.1.1, SVG Export Plug-In . SVG Version: 6.00 Build 0)  -->
<svg version="1.1" id="Layer_1" xmlns="http://www.w3.org/2000/svg" xmlns:xlink="http://www.w3.org/1999/xlink" x="0px" y="0px"
	 viewBox="0 0 35 35" enable-background="new 0 0 35 35" xml:space="preserve">
<g>
	<rect x="12.3" y="16.7" fill="#FFFFFF" width="10.2" height="1"/>
	<rect x="9.6" y="13.3" fill="#FFFFFF" width="15.5" height="1"/>
	<rect x="9.6" y="8.9" fill="#FFFFFF" width="15.5" height="1"/>
	<path fill="#FFFFFF" d="M29,11V5h-6l0,0l-1.5-1.5c-1.2-1.2-2.8-1.8-4.5-1.8c-1.7,0-3.3,0.7-4.4,1.9L11.2,5h-6v6.3l-3.7,3.9v18.1
		h31.7V15.2L29,11z M29,12.4l3,3L29,18V12.4z M13.3,4.3c1-1,2.3-1.6,3.7-1.6c1.4,0,2.7,0.5,3.7,1.5L21.6,5h-9L13.3,4.3z M6.2,6H28
		l0,12.8l-6.5,5.6c-1,1-2.3,1.6-3.7,1.6c0,0,0,0-0.1,0c-1.4,0-2.7-0.5-3.7-1.6l-7.7-6.3V6z M5.2,12.8v4.6l-2.5-2L5.2,12.8z
		 M2.5,16.5l8.4,6.8l-8.4,8.4V16.5z M3.2,32.3l8.4-8.4l1.6,1.3c1.2,1.2,2.7,1.8,4.4,1.8c0,0,0.1,0,0.1,0c1.7,0,3.3-0.7,4.4-1.9
		l1.4-1.2l8.4,8.4H3.2z M32.3,31.2l-7.9-7.9l7.9-6.8V31.2z"/>
</g>
</svg>
